<?xml version="1.0" encoding="UTF-8" standalone="no"?>
<!-- Created with Inkscape (http://www.inkscape.org/) -->

<svg
   xmlns:dc="http://purl.org/dc/elements/1.1/"
   xmlns:cc="http://creativecommons.org/ns#"
   xmlns:rdf="http://www.w3.org/1999/02/22-rdf-syntax-ns#"
   xmlns:svg="http://www.w3.org/2000/svg"
   xmlns="http://www.w3.org/2000/svg"
   xmlns:sodipodi="http://sodipodi.sourceforge.net/DTD/sodipodi-0.dtd"
   xmlns:inkscape="http://www.inkscape.org/namespaces/inkscape"
   width="163.92624mm"
   height="166.96921mm"
   viewBox="0 0 580.841 591.62317"
   id="svg4195"
   version="1.1"
   inkscape:version="0.91 r13725"
   sodipodi:docname="ain7_logo.svg">
  <defs
     id="defs4197" />
  <sodipodi:namedview
     id="base"
     pagecolor="#ffffff"
     bordercolor="#666666"
     borderopacity="1.0"
     inkscape:pageopacity="0.0"
     inkscape:pageshadow="2"
     inkscape:zoom="0.49497475"
     inkscape:cx="-63.415022"
     inkscape:cy="182.65235"
     inkscape:document-units="px"
     inkscape:current-layer="layer1"
     showgrid="false"
     fit-margin-top="0"
     fit-margin-left="0"
     fit-margin-right="0"
     fit-margin-bottom="0"
     inkscape:window-width="2511"
     inkscape:window-height="1422"
     inkscape:window-x="49"
     inkscape:window-y="18"
     inkscape:window-maximized="1" />
  <metadata
     id="metadata4200">
    <rdf:RDF>
      <cc:Work
         rdf:about="">
        <dc:format>image/svg+xml</dc:format>
        <dc:type
           rdf:resource="http://purl.org/dc/dcmitype/StillImage" />
        <dc:title />
      </cc:Work>
    </rdf:RDF>
  </metadata>
  <g
     inkscape:label="Calque 1"
     inkscape:groupmode="layer"
     id="layer1"
     transform="translate(-81.855114,-233.49043)">
    <path
       style="fill:#2156ab;fill-opacity:1;stroke:none;stroke-width:5;stroke-linejoin:miter;stroke-miterlimit:4;stroke-dasharray:none;stroke-opacity:1"
       d="m 554.10206,243.08912 -18.20312,56.27149 c -10.42701,38.17439 -65.36928,34.72779 -68.92774,36.791 l -0.17382,0.30078 c -0.0457,-0.11346 0.0201,-0.21168 0.17382,-0.30078 l 53.36329,-93.06249 C 67.478349,213.26327 85.840339,228.54637 85.840339,656.177 153.02415,629.45084 218.03234,606.35238 269.45949,605.8977 c 9.7939,0.64524 27.0448,17.82069 14.37109,73.875 16.25846,-17.41387 27.15911,-45.59296 53.36523,-43.11132 10.96777,1.17469 22.54925,19.44033 16.39453,61.56445 22.07941,-0.85371 48.71542,-8.28723 76.6836,-18.16016 7.78144,-32.07443 16.69442,-60.76728 27.95703,-82.39843 -32.26142,12.54031 -59.24503,14.58771 -86.15625,16.42773 l -16.42773,-57.44922 c 43.77473,7.06516 89.6077,-6.38902 133.38281,-26.68164 l 16.39453,41.05274 -26.65039,18.45312 c -12.42642,28.02968 -22.54946,56.06797 -30.73242,84.09766 28.42595,-10.73098 57.50992,-23.04027 84.06445,-32.79102 l 4.11523,51.30859 c -37.35341,14.34827 -69.28128,30.51053 -103.03906,42.45704 -5.10184,25.86583 -8.73236,51.73527 -11.19141,77.60157 308.79573,38.12456 232.618,-100.82331 231.85643,-369.01156 -60.24726,17.60548 -126.54846,30.18899 -165.44822,54.41194 -57.78273,33.53795 -104.07428,0.66946 -47.78711,-89.81641 l -69.81836,28.36328 c -6.71084,37.3982 -6.76203,66.82738 -15.09001,100.88546 -18.11057,0.24579 -20.9401,4.86081 -35.56208,-2.39575 -2.70363,-22.11739 0.92551,-53.79097 12.83178,-86.84322 -22.99578,7.51113 -46.62331,16.48605 -64.00782,10.9043 -38.06027,58.26364 -91.27547,101.59555 -98.1914,100.36914 -12.94301,-9.11659 -13.57184,-20.27677 -15.26953,-31.26758 24.30355,-19.32998 48.05279,-37.02419 74.18164,-61.83008 -19.478,1.33562 -39.00387,2.7446 -50.91406,-7.27148 l -14.53907,-37.0918 c 44.27573,0.6937 85.39133,-8.08716 125.82617,-18.91602 l 63.27735,-80.00389 c -10.18788,-0.0803 -23.07173,1.01857 -23.92969,-3.72852 -0.94797,-5.24519 1.86939,-16.60724 -2.53516,-16.63476 -2.62042,-0.0164 -12.67825,4.76096 -4.08593,-23.28125 44.38488,1.34206 83.11902,-0.13793 112.01367,-6.54102 -6.06115,23.55198 -12.1244,31.59239 -18.18555,46.54883 l -16,1.45898 -17.45703,58.91406 101.09766,-26.91602 21.09375,31.2793 c -22.02283,28.96811 -50.02192,65.86493 -53.82032,81.46484 12.61501,1.97105 115.09485,-20.40605 203.36719,-41.02734 C 654.20887,286.75681 694.06274,243.08912 554.10206,243.08912 Z M 403.42433,812.14381 c 4.7341,-23.95963 9.28686,-48.46702 14.01562,-72.44142 -57.64605,19.35646 -96.99535,15.89556 -108.98437,-47.61719 -17.61835,24.95377 -34.94282,50.46697 -47.19336,86.15627 l -24.625,-26.65041 14.36914,-119.01171 c -31.30054,-0.44107 -97.45068,18.5897 -165.166021,39.13867 -33.14475,216.53833 146.407201,140.42579 317.583991,140.42579 z m -34.08984,-480.78516 -45.08985,62.54687 26.18555,-5.08203 z"
       id="rect4284"
       inkscape:connector-curvature="0"
       sodipodi:nodetypes="ccccccccccccccccccccccccccccccccccccccsscccccccccccccccccccccc"
       inkscape:export-filename="/home/alexis/Bureau/AIn7 Logo/PNG/AIn7-modern-round.png"
       inkscape:export-xdpi="89.753075"
       inkscape:export-ydpi="89.753075" />
  </g>
</svg>
