<?xml version="1.0" encoding="UTF-8" standalone="no"?>
<!-- Created with Inkscape (http://www.inkscape.org/) -->
<svg
   xmlns:dc="http://purl.org/dc/elements/1.1/"
   xmlns:cc="http://creativecommons.org/ns#"
   xmlns:rdf="http://www.w3.org/1999/02/22-rdf-syntax-ns#"
   xmlns:svg="http://www.w3.org/2000/svg"
   xmlns="http://www.w3.org/2000/svg"
   xmlns:xlink="http://www.w3.org/1999/xlink"
   xmlns:sodipodi="http://sodipodi.sourceforge.net/DTD/sodipodi-0.dtd"
   xmlns:inkscape="http://www.inkscape.org/namespaces/inkscape"
   width="1052.3622"
   height="744.09448"
   id="svg2"
   sodipodi:version="0.32"
   inkscape:version="0.46"
   version="1.0"
   sodipodi:docname="ain7_logo.svg"
   inkscape:output_extension="org.inkscape.output.svg.inkscape"
   inkscape:export-filename="/home/lionel/AIn7/ain7_logo.png"
   inkscape:export-xdpi="90"
   inkscape:export-ydpi="90">
  <defs
     id="defs4">
    <linearGradient
       id="linearGradient3269">
      <stop
         style="stop-color:#f6b71a;stop-opacity:1;"
         offset="0"
         id="stop3271" />
      <stop
         style="stop-color:#f41a1a;stop-opacity:0;"
         offset="1"
         id="stop3273" />
    </linearGradient>
    <linearGradient
       id="linearGradient3258">
      <stop
         id="stop3260"
         offset="0"
         style="stop-color:#ffff00;stop-opacity:1;" />
      <stop
         id="stop3262"
         offset="1"
         style="stop-color:#fe2004;stop-opacity:1;" />
    </linearGradient>
    <inkscape:perspective
       sodipodi:type="inkscape:persp3d"
       inkscape:vp_x="0 : 526.18109 : 1"
       inkscape:vp_y="0 : 1000 : 0"
       inkscape:vp_z="744.09448 : 526.18109 : 1"
       inkscape:persp3d-origin="372.04724 : 350.78739 : 1"
       id="perspective10" />
    <inkscape:perspective
       id="perspective2410"
       inkscape:persp3d-origin="372.04724 : 350.78739 : 1"
       inkscape:vp_z="744.09448 : 526.18109 : 1"
       inkscape:vp_y="0 : 1000 : 0"
       inkscape:vp_x="0 : 526.18109 : 1"
       sodipodi:type="inkscape:persp3d" />
    <linearGradient
       inkscape:collect="always"
       xlink:href="#linearGradient3258"
       id="linearGradient3267"
       x1="454.02975"
       y1="-1.9805834"
       x2="232.66618"
       y2="528.13593"
       gradientUnits="userSpaceOnUse"
       gradientTransform="matrix(0.6906313,0,0,0.6906313,458.31284,15.801897)" />
  </defs>
  <sodipodi:namedview
     id="base"
     pagecolor="#ffffff"
     bordercolor="#666666"
     borderopacity="1.0"
     inkscape:pageopacity="0.0"
     inkscape:pageshadow="2"
     inkscape:zoom="0.47715882"
     inkscape:cx="655.93705"
     inkscape:cy="364.60331"
     inkscape:document-units="px"
     inkscape:current-layer="layer1"
     showgrid="false"
     inkscape:window-width="1440"
     inkscape:window-height="828"
     inkscape:window-x="0"
     inkscape:window-y="25" />
  <metadata
     id="metadata7">
    <rdf:RDF>
      <cc:Work
         rdf:about="">
        <dc:format>image/svg+xml</dc:format>
        <dc:type
           rdf:resource="http://purl.org/dc/dcmitype/StillImage" />
      </cc:Work>
    </rdf:RDF>
  </metadata>
  <g
     inkscape:label="Calque 1"
     inkscape:groupmode="layer"
     id="layer1">
    <path
       style="fill:#000000;fill-opacity:1;fill-rule:evenodd;stroke:none;stroke-width:1px;stroke-linecap:butt;stroke-linejoin:miter;stroke-opacity:1"
       d="M 804.77091,52.387042 L 688.4643,255.21681 C 695.09835,251.37036 797.52569,257.79715 816.9648,186.62848 L 849.51084,91.709842 L 804.77091,52.387042 z M 688.4643,255.21681 C 688.17769,255.38294 688.05525,255.56642 688.14052,255.77795 L 688.4643,255.21681 z M 628.48719,136.4498 C 574.61888,148.38709 502.40447,151.14572 419.65758,148.64375 C 403.63887,200.92296 422.47259,192.93609 427.27615,192.04562 C 436.22016,190.38757 430.2353,213.28065 432.00262,223.05928 C 433.60212,231.9093 457.61986,229.8591 476.61312,230.00875 L 358.64458,379.16352 C 283.26178,399.35177 206.61066,415.72216 124.06733,414.42888 L 151.17461,483.57834 C 173.37882,502.25136 209.78039,499.62199 246.09327,497.13198 C 197.38116,543.37769 153.10354,576.36577 107.79433,612.40271 C 110.95929,632.89291 112.13163,653.70024 136.26132,670.69633 C 149.15472,672.98274 248.36589,592.19946 319.32173,483.57834 C 351.73185,493.98443 395.77887,477.25091 438.64994,463.24788 C 416.45306,524.86732 409.20004,588.80183 414.24048,630.03536 C 441.50025,643.56379 465.07992,646.01104 488.82866,649.00623 C 498.387,629.44417 507.02473,608.52591 502.3823,567.66271 C 494.13803,538.23235 499.43372,492.53009 509.15912,441.53616 L 639.32151,388.6597 C 589.45226,427.20284 560.81282,596.1678 624.4082,602.90652 C 572.36079,600.46025 725.93515,609.72607 800.69183,547.31069 C 790.42523,506.47353 808.43138,487.10733 830.51845,482.2187 L 826.461,465.94569 C 770.51342,476.24191 695.8763,505.24248 659.67356,495.79388 C 669.92945,455.47801 718.95211,397.92514 760.00936,343.91977 L 720.68655,285.60459 L 532.20894,335.78324 L 564.75494,225.9513 L 594.58158,223.23194 C 605.88142,195.34859 617.18739,180.35781 628.48719,136.4498 z M 506.43976,246.28176 L 471.19595,353.41596 L 422.37694,362.89052 L 506.43976,246.28176 z"
       id="path3323"
       sodipodi:nodetypes="ccccccccccssccccccccccccccccccccccccccccc" />
    <path
       style="fill:#000000;fill-rule:evenodd;stroke:#000000;stroke-width:0.69063133px;stroke-linecap:butt;stroke-linejoin:miter;stroke-opacity:1"
       d="M 991.21681,529.70376 C 962.28909,543.11367 932.00252,552.00529 903.07495,547.33645 L 913.9308,585.29959 C 931.71446,584.08366 949.54544,582.7307 970.86471,574.44372 C 963.42201,588.73818 957.53249,607.70003 952.3903,628.89568 C 933.90817,635.41998 916.30587,640.33125 901.71519,640.8954 C 905.78239,613.05863 896.41502,592.66524 890.88096,600.2129 C 873.56324,598.57298 866.35964,617.19386 855.6156,628.70145 C 863.99075,591.6592 855.46815,585.02166 846.11941,579.88245 C 785.41109,580.41917 696.06933,628.70327 621.03831,653.11095 C 677.40315,640.88888 795.46225,596.97312 833.92552,597.51512 L 824.42933,676.16076 L 840.7023,693.77187 C 848.79779,670.18741 860.24589,653.32807 871.88857,636.83794 C 875.92739,659.53481 887.33493,687.93584 901.71519,676.16076 C 917.0363,675.1901 930.79505,672.29673 943.90855,668.30484 C 940.20463,687.0834 936.67636,706.3925 932.90146,724.95818 L 946.47674,720.90072 C 948.09549,702.23285 950.62902,683.56273 954.31112,664.89485 C 976.61911,657.00026 997.71891,646.31968 1022.4031,636.83794 L 1019.6838,602.93227 C 1002.1358,609.37583 982.91561,617.50949 964.131,624.60082 C 969.53846,606.07802 976.22821,587.54938 984.43991,569.02659 L 1002.051,556.83262 L 991.21681,529.70376 z"
       id="path2416" />
    <path
       style="fill:url(#linearGradient3267);fill-opacity:1;fill-rule:evenodd;stroke:none;stroke-width:1px;stroke-linecap:butt;stroke-linejoin:miter;stroke-opacity:1"
       d="M 738.32778,2.2157278 L 622.02117,205.04549 C 628.65521,201.19905 731.08256,207.62583 750.52166,136.45717 L 783.0677,41.538516 L 738.32778,2.2157278 z M 622.02117,205.04549 C 621.73456,205.21162 621.61211,205.3951 621.69738,205.60663 L 622.02117,205.04549 z M 562.04408,86.278492 C 508.17573,98.215782 435.96132,100.97442 353.21443,98.472442 C 337.19571,150.75165 356.02944,142.76478 360.83299,141.87431 C 369.77702,140.21625 363.79214,163.10934 365.55947,172.88797 C 367.15896,181.73798 391.1767,179.68778 410.16996,179.83745 L 292.20146,328.9922 C 216.81866,349.18047 140.16754,365.55084 57.624209,364.25757 L 84.731492,433.40702 C 106.9357,452.08004 143.33727,449.45067 179.65015,446.96067 C 130.93804,493.20638 86.660422,526.19445 41.351211,562.2314 C 44.516171,582.7216 45.688513,603.52893 69.818203,620.52503 C 82.711602,622.81143 181.92277,542.02814 252.87864,433.40702 C 285.28867,443.81311 329.33573,427.0796 372.20679,413.07657 C 350.0099,474.696 342.75689,538.63051 347.79732,579.86404 C 375.05709,593.39247 398.63677,595.83973 422.38551,598.83491 C 431.94384,579.27286 440.58157,558.3546 435.93914,517.49139 C 427.69487,488.06104 432.99056,442.35879 442.71597,391.36484 L 572.87835,338.48839 C 523.00911,377.03154 494.36966,545.9965 557.96506,552.7352 C 505.91765,550.28894 659.49202,559.55475 734.2486,497.13939 C 723.98209,456.30221 741.98824,436.93601 764.07531,432.04738 L 760.01786,415.77438 C 704.07029,426.07059 629.43316,455.07117 593.23043,445.62257 C 603.48631,405.30669 652.50897,347.75383 693.56622,293.74846 L 654.24332,235.43327 L 465.76579,285.61192 L 498.31179,175.77999 L 528.13843,173.06062 C 539.43826,145.17728 550.74425,130.1865 562.04408,86.278492 z M 439.99661,196.11044 L 404.75279,303.24464 L 355.93379,312.7192 L 439.99661,196.11044 z"
       id="path2478"
       sodipodi:nodetypes="ccccccccccssccccccccccccccccccccccccccccc" />
  </g>
</svg>
