<?xml version="1.0" encoding="UTF-8" standalone="no"?>
<!-- Created with Inkscape (http://www.inkscape.org/) -->

<svg
   xmlns:dc="http://purl.org/dc/elements/1.1/"
   xmlns:cc="http://creativecommons.org/ns#"
   xmlns:rdf="http://www.w3.org/1999/02/22-rdf-syntax-ns#"
   xmlns:svg="http://www.w3.org/2000/svg"
   xmlns="http://www.w3.org/2000/svg"
   xmlns:sodipodi="http://sodipodi.sourceforge.net/DTD/sodipodi-0.dtd"
   xmlns:inkscape="http://www.inkscape.org/namespaces/inkscape"
   id="svg2"
   version="1.1"
   inkscape:version="0.91 r13725"
   xml:space="preserve"
   width="298.47501"
   height="53.0625"
   viewBox="0 0 298.47501 53.0625"
   sodipodi:docname="inp-enseeiht.svg"><metadata
     id="metadata8"><rdf:RDF><cc:Work
         rdf:about=""><dc:format>image/svg+xml</dc:format><dc:type
           rdf:resource="http://purl.org/dc/dcmitype/StillImage" /><dc:title></dc:title></cc:Work></rdf:RDF></metadata><defs
     id="defs6" /><sodipodi:namedview
     pagecolor="#ffffff"
     bordercolor="#666666"
     borderopacity="1"
     objecttolerance="10"
     gridtolerance="10"
     guidetolerance="10"
     inkscape:pageopacity="0"
     inkscape:pageshadow="2"
     inkscape:window-width="2511"
     inkscape:window-height="1422"
     id="namedview4"
     showgrid="false"
     inkscape:zoom="2.9219535"
     inkscape:cx="282.5188"
     inkscape:cy="25.342217"
     inkscape:window-x="49"
     inkscape:window-y="18"
     inkscape:window-maximized="1"
     inkscape:current-layer="g10" /><g
     id="g10"
     inkscape:groupmode="layer"
     inkscape:label="ink_ext_XXXXXX"
     transform="matrix(1.25,0,0,-1.25,0,53.0625)"><path
       inkscape:connector-curvature="0"
       id="path14"
       style="fill:#2156ab;fill-opacity:1;fill-rule:nonzero;stroke:none"
       d="m 53.0637,0.00195313 185.717,0 0,42.44839987 -185.717,0 0,-42.44839987 z" /><path
       inkscape:connector-curvature="0"
       id="path16"
       style="fill:#ffffff;fill-opacity:1;fill-rule:nonzero;stroke:none"
       d="m 62.3047,9.63867 134.064,0 0,2.13086 -134.064,0 0,-2.13086 z" /><path
       inkscape:connector-curvature="0"
       id="path18"
       style="fill:#ffffff;fill-opacity:1;fill-rule:nonzero;stroke:none"
       d="m 178.733,14.6523 c 0,0 12.128,3.3426 13.008,3.6446 0.248,0.084 2.853,0.8691 3.113,0.9355 0.203,0.0547 3.371,1.0996 6.347,1.9981 3.656,1.1011 6.686,2.5843 6.935,2.6816 1.493,0.5867 2.416,1.2965 4.018,1.5977 0.965,-0.6668 1.998,-2.1676 2.03,-3.1871 0.417,0.6699 0.516,1.4699 1.148,1.9769 0.46,0.366 0.98,0.2824 1.422,0.1496 0.854,-0.8012 1.297,-2.4062 1.444,-3.4961 0.073,-0.5422 0.932,-0.7011 1.464,-0.6992 1.343,0.0059 2.464,0.1816 4.428,0.875 2.056,0.7223 3.909,1.4281 4.133,1.5332 0.907,0.4168 1.615,0.5043 2.518,0.9613 0.625,0.3145 1.208,0.8801 1.812,1.0637 0.522,0.1559 0.158,0.0688 0.654,0.318 -0.116,-0.2602 -0.249,-0.816 -0.24,-1.0887 0.013,-0.4828 -0.122,-0.5863 0.297,-1.0613 0.509,-0.5797 0.424,-1.527 0.101,-2.1871 -0.392,-0.791 -1.372,-1.2422 -2.328,-1.709 -0.951,-0.4688 -1.88,-0.9531 -2.225,-1.0164 -0.313,-0.0578 -3.58,-1.5754 -6.369,-2.1223 -0.722,-0.1426 -2.399,-0.3723 -3.223,-0.4785 -0.399,-0.0535 -1.639,-0.1758 -1.962,-0.0145 -1.362,0.6805 -2.043,3.3055 -2.11,3.2372 -0.485,-0.4981 -0.58,-0.7071 -0.887,-1.3274 -0.533,-1.084 -1.176,-3.4695 -1.638,-4.5691 -0.025,-0.0567 -0.674,0.1093 -1.202,0.3574 -0.814,0.3801 -1.694,1.0461 -1.669,1.0762 0.306,0.3769 0.837,2.8554 0.96,3.3222 0.369,1.4317 0.39,2.9688 0.641,4.2856 0.042,0.2203 -0.216,1.2851 -0.525,1.5304 -0.334,0.2614 -0.627,0.1911 -1.031,0.0075 -0.16,-0.0762 -2.443,-0.8371 -6.73,-2.0762 -2.772,-0.802 -6.325,-1.9438 -9.296,-2.7981 -5.574,-1.6054 -10.449,-3.0019 -10.667,-3.0664 -0.348,-0.1054 -4.056,-0.9211 -4.102,-0.7031" /><path
       inkscape:connector-curvature="0"
       id="path20"
       style="fill:#ffffff;fill-opacity:1;fill-rule:nonzero;stroke:none"
       d="m 215.636,29.7027 c -0.041,-0.848 0.589,-1.7816 1.111,-2.4492 0.438,-0.5625 1.497,-0.7472 2.127,-0.8055 0.582,-0.048 5.392,1.1958 6.724,1.6594 -0.126,-0.7453 -2.122,-7.3476 -2.539,-9.2754 -0.075,-0.3425 -0.504,-1.9668 -0.637,-2.4453 -0.043,-0.166 -0.325,-1.9922 -0.639,-2.698 -0.099,-0.2258 -1.439,-4.45237 -0.764,-5.65042 0.015,-0.02851 0.551,0.72813 0.691,0.7918 0.124,0.05664 0.686,-0.03711 0.752,0.05078 0.518,0.67266 0.429,1.79764 0.517,2.60934 0.021,0.2168 0.214,2.5684 0.513,3.6692 0.805,2.9722 1.581,5.9324 2.437,8.8902 0.235,0.8133 0.921,2.8645 1.324,3.632 0.448,0.8606 1.095,1.0254 1.431,1.8891 -0.472,-1.2109 -0.125,0.9551 0,0 -0.051,0.4078 -0.301,1.8711 -0.376,2.3117 -0.129,0.7621 -0.126,1.5133 -0.118,1.6246 -0.87,-0.364 -5.608,-1.8769 -8.893,-2.455 -1.615,-0.2848 -3.141,-0.0965 -3.332,-0.043 -0.249,0.0668 -0.527,0.1105 -0.777,0.266 0.091,-0.5977 0.185,-1.1988 0.396,-1.7738" /><path
       inkscape:connector-curvature="0"
       id="path22"
       style="fill:#ffffff;fill-opacity:1;fill-rule:nonzero;stroke:none"
       d="m 62.3473,15.498 0,16.4422 13.1105,0 0.7512,-2.1574 -10.3516,0 0,-4.6484 8.2742,0 0,-2.1578 -8.2742,0 0,-5.3203 11.1399,0 -1.0028,-2.1583 -13.6472,0" /><path
       inkscape:connector-curvature="0"
       id="path24"
       style="fill:#ffffff;fill-opacity:1;fill-rule:nonzero;stroke:none"
       d="m 79.218,15.2109 0,17.1121 0.0726,0 15.7614,-11.5039 0,10.7372 3.5105,0.3839 0,-16.8242 -0.0719,0 -15.7617,11.5047 0,-11.1227 -3.5109,-0.2871" /><path
       inkscape:connector-curvature="0"
       id="path26"
       style="fill:#ffffff;fill-opacity:1;fill-rule:nonzero;stroke:none"
       d="m 103.72,19.2129 c 1.002,-1.052 2.722,-1.9387 4.693,-1.9387 2.579,0 4.477,0.8371 4.477,2.8742 0,3.8094 -11.247,1.7286 -11.247,7.5024 0,2.8984 3.116,4.6722 7.558,4.6722 2.723,0 5.302,-0.9582 6.913,-2.3968 l -2.364,-1.5824 c -1.326,0.9367 -2.687,1.8226 -4.729,1.8226 -2.256,0 -3.867,-0.9594 -3.867,-2.5156 0,-3.3793 11.246,-1.8465 11.246,-7.5278 0,-2.9218 -3.367,-5.007 -7.629,-5.007 -3.369,0 -5.409,1.0774 -7.63,2.6594 l 2.579,1.4375" /><path
       inkscape:connector-curvature="0"
       id="path28"
       style="fill:#ffffff;fill-opacity:1;fill-rule:nonzero;stroke:none"
       d="m 119.268,15.498 0,16.4422 13.109,0 0.752,-2.1574 -10.352,0 0,-4.6484 8.276,0 0,-2.1578 -8.276,0 0,-5.3203 11.141,0 -1.002,-2.1583 -13.648,0" /><path
       inkscape:connector-curvature="0"
       id="path30"
       style="fill:#ffffff;fill-opacity:1;fill-rule:nonzero;stroke:none"
       d="m 136.246,15.498 0,16.4422 13.109,0 0.753,-2.1574 -10.352,0 0,-4.6484 8.275,0 0,-2.1578 -8.275,0 0,-5.3203 11.14,0 -1.003,-2.1583 -13.647,0" /><path
       inkscape:connector-curvature="0"
       id="path32"
       style="fill:#ffffff;fill-opacity:1;fill-rule:nonzero;stroke:none"
       d="m 153.045,15.3086 0,16.6316 3.512,0.3828 0,-16.825 -3.512,-0.1894" /><path
       inkscape:connector-curvature="0"
       id="path34"
       style="fill:#ffffff;fill-opacity:1;fill-rule:nonzero;stroke:none"
       d="m 160.244,15.2109 0,16.7293 3.512,0.3828 0,-7.1886 12.107,0 0,6.8058 3.51,0.3828 0,-16.825 -3.51,-0.2871 0,7.7657 -12.107,0 0,-7.4786 -3.512,-0.2871" /><path
       inkscape:connector-curvature="0"
       id="path36"
       style="fill:#ffffff;fill-opacity:1;fill-rule:nonzero;stroke:none"
       d="m 180.629,29.7828 1.108,2.1574 14.507,0 0,-2.1574 -5.73,0 0,-14.2848 -3.51,-0.2871 0,14.5719 -6.375,0" /><path
       inkscape:connector-curvature="0"
       id="path38"
       style="fill:#8e939a;fill-opacity:1;fill-rule:nonzero;stroke:none"
       d="m 0,0 53.0637,0 0,42.4492 L 0,42.4492 0,0 Z" /><path
       inkscape:connector-curvature="0"
       id="path40"
       style="fill:#e91e26;fill-opacity:1;fill-rule:nonzero;stroke:none"
       d="m 53.0586,42.4492 -48.19141,0 0,-5.4832 48.19141,5.4832" /><path
       inkscape:connector-curvature="0"
       id="path42"
       style="fill:#ffffff;fill-opacity:1;fill-rule:nonzero;stroke:none"
       d="m 5.07031,10.9902 2.21992,0 0,-0.664 -0.63437,0 0,-1.59573 -1.07383,-0.05274 0,1.64847 -0.73984,0 0.22812,0.664" /><path
       inkscape:connector-curvature="0"
       id="path44"
       style="fill:#ffffff;fill-opacity:1;fill-rule:nonzero;stroke:none"
       d="m 11.3383,9.85938 c 0,-0.26172 0.2777,-0.51758 0.7476,-0.51758 0.4704,0 0.7493,0.25586 0.7493,0.51758 0,0.26562 -0.2789,0.52152 -0.7493,0.52152 -0.4699,0 -0.7476,-0.2559 -0.7476,-0.52152 z m 2.5719,0 c 0,-0.57618 -0.6196,-1.18165 -1.8243,-1.18165 -1.2031,0 -1.8218,0.60547 -1.8218,1.18165 0,0.57812 0.6187,1.18552 1.8218,1.18552 1.2047,0 1.8243,-0.6074 1.8243,-1.18552" /><path
       inkscape:connector-curvature="0"
       id="path46"
       style="fill:#ffffff;fill-opacity:1;fill-rule:nonzero;stroke:none"
       d="m 18.1016,11.0449 0,-1.53513 c 0,-0.11719 0.055,-0.18555 0.2386,-0.18555 0.1789,0 0.2121,0.07812 0.2121,0.18555 l 0,1.48043 1.0754,0.0547 0,-1.58201 c 0,-0.53906 -0.5496,-0.78516 -1.3832,-0.78516 -0.7281,0 -1.2187,0.2793 -1.2187,0.77735 l 0,1.53512 1.0758,0.0547" /><path
       inkscape:connector-curvature="0"
       id="path48"
       style="fill:#ffffff;fill-opacity:1;fill-rule:nonzero;stroke:none"
       d="m 22.8684,8.73047 0,2.25973 1.0746,0.0547 0,-1.64842 1.1742,0 -0.227,-0.66601 -2.0218,0" /><path
       inkscape:connector-curvature="0"
       id="path50"
       style="fill:#ffffff;fill-opacity:1;fill-rule:nonzero;stroke:none"
       d="m 29.0961,9.85938 c 0,-0.26172 0.2769,-0.51758 0.75,-0.51758 0.4703,0 0.7473,0.25586 0.7473,0.51758 0,0.26562 -0.277,0.52152 -0.7473,0.52152 -0.4731,0 -0.75,-0.2559 -0.75,-0.52152 z m 2.5715,0 c 0,-0.57618 -0.6168,-1.18165 -1.8215,-1.18165 -1.2055,0 -1.825,0.60547 -1.825,1.18165 0,0.57812 0.6195,1.18552 1.825,1.18552 1.2047,0 1.8215,-0.6074 1.8215,-1.18552" /><path
       inkscape:connector-curvature="0"
       id="path52"
       style="fill:#ffffff;fill-opacity:1;fill-rule:nonzero;stroke:none"
       d="m 35.8613,11.0449 0,-1.53513 c 0,-0.11719 0.0532,-0.18555 0.2371,-0.18555 0.1786,0 0.2137,0.07812 0.2137,0.18555 l 0,1.48043 1.0742,0.0547 0,-1.58201 c 0,-0.53906 -0.55,-0.78516 -1.3808,-0.78516 -0.7317,0 -1.2196,0.2793 -1.2196,0.77735 l 0,1.53512 1.0754,0.0547" /><path
       inkscape:connector-curvature="0"
       id="path54"
       style="fill:#ffffff;fill-opacity:1;fill-rule:nonzero;stroke:none"
       d="m 42.7969,10.3359 c -0.2184,0.045 -0.511,0.0821 -0.7278,0.0821 -0.1789,0 -0.4207,0 -0.4207,-0.1153 0,-0.1777 1.3414,-0.164 1.3414,-0.8652 0,-0.5 -0.5789,-0.75977 -1.5355,-0.75977 -0.3391,0 -0.5598,0.0293 -0.848,0.06641 l 0,0.64649 c 0.2828,-0.04102 0.58,-0.06641 0.848,-0.06641 0.282,0 0.4168,0.03125 0.4168,0.12109 0,0.2168 -1.2981,0.13477 -1.2981,0.85739 0,0.4922 0.5653,0.7422 1.3215,0.7422 0.3082,0 0.6493,-0.0234 0.9024,-0.0605 l 0,-0.6485" /><path
       inkscape:connector-curvature="0"
       id="path56"
       style="fill:#ffffff;fill-opacity:1;fill-rule:nonzero;stroke:none"
       d="m 46.1813,8.73047 0,2.25973 1.8886,0 0.2121,-0.6054 -1.0265,0 0,-0.2246 0.6687,0 0,-0.56254 -0.6687,0 0,-0.24219 1.0996,0 -0.2164,-0.625 -1.9574,0" /><path
       inkscape:connector-curvature="0"
       id="path58"
       style="fill:#ffffff;fill-opacity:1;fill-rule:nonzero;stroke:none"
       d="m 4.9375,14.8457 0,17.1621 3.64141,0.3977 0,-17.3625 -3.64141,-0.1973" /><path
       inkscape:connector-curvature="0"
       id="path60"
       style="fill:#ffffff;fill-opacity:1;fill-rule:nonzero;stroke:none"
       d="m 11.4027,14.7461 0,17.6594 0.0743,0 16.35,-11.8723 0,11.0801 3.6433,0.3945 0,-17.3613 -0.0742,0 -16.3523,11.8711 0,-11.4746 -3.6411,-0.2969" /><path
       inkscape:connector-curvature="0"
       id="path62"
       style="fill:#ffffff;fill-opacity:1;fill-rule:nonzero;stroke:none"
       d="m 37.9723,23.748 2.8246,0 c 3.4945,0 5.3886,0.8653 5.3886,3.2657 0,2.0781 -2.5628,2.7695 -5.3886,2.7695 l -2.8246,0 0,-6.0352 z m -3.641,-9.0019 0,17.2617 6.8773,0 c 5.1992,0 8.618,-2.0762 8.618,-4.9941 0,-4.1543 -4.3852,-5.4903 -9.8828,-5.4903 l -1.9715,0 0,-6.4804 -3.641,-0.2969" /></g></svg>